name C:\Users\u0101727\Documents\MyRepositories\upper-imu-dc\Results\main_tracking\Case_10\kinematics.mot
datacolumns 10
datarows 47
range 5.00000000 5.46000000
endheader 
time	clav_prot	clav_elev	scapula_abduction	scapula_elevation	scapula_upward_rot	scapula_winging	plane_elv	shoulder_elv	axial_rot	
          5.00000000	        -27.86421356	          4.70744568	         -6.39505733	         -3.04746594	         38.79650922	         -3.56540530	         73.34405564	         47.40829089	        -26.44659162	
          5.01000000	        -27.71362809	          4.46240680	         -6.50433724	         -3.12971863	         38.22376287	         -3.37293424	         73.07332627	         46.99110282	        -26.10598039	
          5.02000000	        -27.57060301	          4.21669617	         -6.62011965	         -3.21242106	         37.65724601	         -3.18095908	         72.80645395	         46.57938635	        -25.71668946	
          5.03000000	        -27.43282804	          3.97262957	         -6.73701243	         -3.29424825	         37.09976068	         -2.99026299	         72.54143781	         46.17002635	        -25.26179466	
          5.04000000	        -27.29726718	          3.73120634	         -6.84810314	         -3.37476383	         36.55391865	         -2.80127843	         72.27402655	         45.75962902	        -24.72526337	
          5.05000000	        -27.16082315	          3.49198809	         -6.94659922	         -3.45445057	         36.02147286	         -2.61399046	         71.99822843	         45.34560335	        -24.10208429	
          5.06000000	        -27.02117688	          3.25349769	         -7.02773219	         -3.53440779	         35.50290166	         -2.42801668	         71.70775812	         44.92704101	        -23.40473156	
          5.07000000	        -26.87747148	          3.01397711	         -7.09015277	         -3.61584294	         34.99743931	         -2.24283585	         71.39796544	         44.50498987	        -22.66269963	
          5.08000000	        -26.73052909	          2.77217952	         -7.13619278	         -3.69957393	         34.50353468	         -2.05806006	         71.06740065	         44.08197965	        -21.91545690	
          5.09000000	        -26.58247749	          2.52784933	         -7.17085252	         -3.78575350	         34.01950906	         -1.87361915	         70.71823010	         43.66100582	        -21.20227272	
          5.10000000	        -26.43592483	          2.28169612	         -7.19992883	         -3.87391997	         33.54411070	         -1.68977200	         70.35523365	         43.24441528	        -20.55339879	
          5.11000000	        -26.29300925	          2.03492506	         -7.22803071	         -3.96331710	         33.07675937	         -1.50695235	         69.98382260	         42.83313117	        -19.98552928	
          5.12000000	        -26.15468413	          1.78860653	         -7.25722004	         -4.05329435	         32.61745093	         -1.32554084	         69.60802090	         42.42643803	        -19.50161079	
          5.13000000	        -26.02048483	          1.54324086	         -7.28672514	         -4.14356021	         32.16643502	         -1.14568810	         69.22937740	         42.02228211	        -19.09290897	
          5.14000000	        -25.88883018	          1.29876251	         -7.31377055	         -4.23413606	         31.72382025	         -0.96728016	         68.84727314	         41.61789409	        -18.74142351	
          5.15000000	        -25.75772819	          1.05498591	         -7.33520796	         -4.32501505	         31.28921379	         -0.79005463	         68.46030055	         41.21055984	        -18.42300939	
          5.16000000	        -25.62562718	          0.81226461	         -7.34938345	         -4.41568255	         30.86144870	         -0.61379634	         68.06780027	         40.79841476	        -18.11300691	
          5.17000000	        -25.49209740	          0.57203806	         -7.35755161	         -4.50472699	         30.43845963	         -0.43851221	         67.67063150	         40.38108671	        -17.79450786	
          5.18000000	        -25.35805804	          0.33699819	         -7.36419754	         -4.58974027	         30.01740611	         -0.26451282	         67.27077384	         39.95992210	        -17.46593142	
          5.19000000	        -25.22540573	          0.11076858	         -7.37595543	         -4.66759541	         29.59510521	         -0.09237839	         66.87001947	         39.53758911	        -17.14310658	
          5.20000000	        -25.09615870	         -0.10281189	         -7.39943410	         -4.73503178	         29.16867984	          0.07717034	         66.46845858	         39.11713886	        -16.85355334	
          5.21000000	        -24.97149012	         -0.30053982	         -7.43886122	         -4.78933892	         28.73617539	          0.24344656	         66.06354490	         38.70091303	        -16.62490960	
          5.22000000	        -24.85110205	         -0.48052091	         -7.49459187	         -4.82889142	         28.29689887	          0.40595383	         65.65023773	         38.28975469	        -16.47204953	
          5.23000000	        -24.73323589	         -0.64246122	         -7.56310078	         -4.85337953	         27.85139292	          0.56447253	         65.22218356	         37.88278928	        -16.38754822	
          5.24000000	        -24.61532781	         -0.78755735	         -7.63838766	         -4.86373429	         27.40114826	          0.71905519	         64.77340424	         37.47776674	        -16.33889603	
          5.25000000	        -24.49504188	         -0.91811854	         -7.71414097	         -4.86186198	         26.94825819	          0.86994476	         64.29975069	         37.07174830	        -16.27394986	
          5.26000000	        -24.37127254	         -1.03710788	         -7.78578549	         -4.85033025	         26.49517727	          1.01745815	         63.79955092	         36.66184811	        -16.13336089	
          5.27000000	        -24.24475804	         -1.14775584	         -7.85174208	         -4.83210245	         26.04460502	          1.16189103	         63.27331584	         36.24580532	        -15.86572459	
          5.28000000	        -24.11811890	         -1.25333068	         -7.91362628	         -4.81035343	         25.59939740	          1.30349230	         62.72278698	         35.82230697	        -15.43998952	
          5.29000000	        -23.99531070	         -1.35706829	         -7.97543575	         -4.78834953	         25.16240691	          1.44251830	         62.14981013	         35.39110162	        -14.85128680	
          5.30000000	        -23.88065030	         -1.46215902	         -8.04203755	         -4.76932402	         24.73623501	          1.57931893	         61.55552538	         34.95297273	        -14.11936725	
          5.31000000	        -23.77779552	         -1.57161123	         -8.11762634	         -4.75624793	         24.32294744	          1.71437205	         60.94019751	         34.50962384	        -13.28151382	
          5.32000000	        -23.68916010	         -1.68785189	         -8.20496992	         -4.75143898	         23.92383610	          1.84820317	         60.30368506	         34.06349545	        -12.38324141	
          5.33000000	        -23.61589769	         -1.81211132	         -8.30558409	         -4.75607618	         23.53934379	          1.98118983	         59.64621589	         33.61747705	        -11.46990080	
          5.34000000	        -23.55800712	         -1.94385757	         -8.41991206	         -4.76981660	         23.16926696	          2.11331252	         58.96901484	         33.17444429	        -10.58091961	
          5.35000000	        -23.51413829	         -2.08060025	         -8.54669271	         -4.79073253	         22.81324190	          2.24394682	         58.27446373	         32.73662433	         -9.74685328	
          5.36000000	        -23.48140107	         -2.21821254	         -8.68213429	         -4.81566217	         22.47133069	          2.37179068	         57.56573649	         32.30495410	         -8.98840382	
          5.37000000	        -23.45576135	         -2.35167950	         -8.82013606	         -4.84087764	         22.14441147	          2.49498808	         56.84606295	         31.87870408	         -8.31638708	
          5.38000000	        -23.43301986	         -2.47604602	         -8.95375015	         -4.86285229	         21.83416065	          2.61144323	         56.11785608	         31.45556904	         -7.73207261	
          5.39000000	        -23.40984249	         -2.58732487	         -9.07701264	         -4.87891439	         21.54263491	          2.71924398	         55.38192273	         31.03221533	         -7.22782679	
          5.40000000	        -23.38436332	         -2.68318007	         -9.18621794	         -4.88766271	         21.27165942	          2.81706970	         54.63693075	         30.60507507	         -6.78829378	
          5.41000000	        -23.35620032	         -2.76327261	         -9.28020663	         -4.88910877	         21.02229440	          2.90446428	         53.87925637	         30.17110924	         -6.39248267	
          5.42000000	        -23.32603198	         -2.82921565	         -9.35981134	         -4.88455862	         20.79457398	          2.98189966	         53.10329926	         29.72833329	         -6.01697100	
          5.43000000	        -23.29506352	         -2.88413788	         -9.42700862	         -4.87626325	         20.58755652	          3.05061895	         52.30230606	         29.27603568	         -5.63991768	
          5.44000000	        -23.26464891	         -2.93193204	         -9.48428361	         -4.86689067	         20.39959037	          3.11231449	         51.46962480	         28.81473523	         -5.24500173	
          5.45000000	        -23.23609105	         -2.97636744	         -9.53429441	         -4.85892349	         20.22865323	          3.16874216	         50.60010840	         28.34596417	         -4.82419775	
          5.46000000	        -23.21048166	         -3.02031823	         -9.57959752	         -4.85413908	         20.07266008	          3.22138335	         49.69119971	         27.87194255	         -4.37859654	
